<svg xmlns="http://www.w3.org/2000/svg" width="87.408" height="87.392" viewBox="0 0 87.408 87.392">
  <g id="Group_115" data-name="Group 115" transform="translate(-64 -25)">
    <path id="Path_57" data-name="Path 57" d="M104.965,25h5.462c1.489.194,2.988.33,4.465.592a42.893,42.893,0,0,1,27.486,16.614A42.239,42.239,0,0,1,150.8,75.7a43.756,43.756,0,0,1-49,36.278,42.19,42.19,0,0,1-23.159-10.705A43,43,0,0,1,64.681,76.311c-.292-1.616-.457-3.256-.681-4.884V65.965c.2-1.515.362-3.039.62-4.545a43.809,43.809,0,0,1,35.55-35.748C101.758,25.392,103.366,25.221,104.965,25ZM136.95,93.767A38.534,38.534,0,0,0,79.135,42.818c-14.406,15.939-12.076,38.32-.646,50.914C94.433,78.978,120.85,78.835,136.95,93.767Zm-54.833,3.7c15.371,13.959,38.5,12.121,51.112-.048A38.454,38.454,0,0,0,82.116,97.464Z" fill="#27648d"/>
    <path id="Path_58" data-name="Path 58" d="M216.323,104.189a25.29,25.29,0,0,1-.894,7.847,16.319,16.319,0,0,1-16.855,11.073,15.967,15.967,0,0,1-14.6-13.824c-.516-4.378-.794-8.863.646-13.185A16.234,16.234,0,0,1,216.044,99C216.284,100.711,216.238,102.459,216.323,104.189Zm-5.219-3.312a11.13,11.13,0,0,0-10.57-10.616A10.982,10.982,0,0,0,189.1,99.294a48.657,48.657,0,0,0-.225,7.907,11.1,11.1,0,0,0,21.85,2.5A59.515,59.515,0,0,0,211.1,100.878Z" transform="translate(-92.292 -46.421)" fill="#27648d"/>
  </g>
</svg>
